<svg width="310" height="359" viewBox="0 0 310 359" fill="none" xmlns="http://www.w3.org/2000/svg">
<g filter="url(#filter0_d_4917_6820)">
<g clip-path="url(#clip0_4917_6820)">
<rect x="146.334" y="25.2245" width="185.079" height="226.015" rx="4.67123" transform="rotate(29.7621 146.334 25.2245)" fill="white"/>
<g opacity="0.5" filter="url(#filter1_d_4917_6820)">
<circle opacity="0.1" cx="144.627" cy="32.1653" r="51.0564" transform="rotate(29.7621 144.627 32.1653)" fill="#7BF2DA"/>
<path d="M192.27 49.2292C165.161 47.9788 133.76 24.6315 122.316 14.317C140.042 26.3384 176.954 53.761 194.556 41.7706L193.855 44.4801L192.27 49.2292Z" fill="white" stroke="#F8FAFC" stroke-width="0.196371"/>
<path d="M187.151 60.1579C160.042 58.9075 127.637 35.8339 116.192 25.5195C133.918 37.5408 173.205 65.7558 190.807 53.7653L189.436 56.6573L187.151 60.1579Z" fill="white" stroke="#F8FAFC" stroke-width="0.196371"/>
<path d="M176.827 71.7852C149.718 70.5348 119.96 49.2584 108.516 38.9439C126.242 50.9652 164.22 78.9971 181.821 67.0067L180.877 68.1633L176.827 71.7852Z" fill="white" stroke="#F8FAFC" stroke-width="0.196371"/>
</g>
<g opacity="0.5" filter="url(#filter2_d_4917_6820)">
<circle opacity="0.1" cx="186.196" cy="299.675" r="51.0564" transform="rotate(-139.928 186.196 299.675)" fill="#7BF2DA"/>
<path d="M142.376 274.36C168.823 280.442 195.539 309.032 204.953 321.229C189.664 306.229 158.256 272.643 138.793 281.289L139.967 278.749L142.376 274.36Z" fill="white" stroke="#F8FAFC" stroke-width="0.196371"/>
<path d="M149.369 264.523C175.816 270.605 203.569 299.106 212.983 311.302C197.694 296.302 164.091 261.512 144.628 270.158L146.494 267.558L149.369 264.523Z" fill="white" stroke="#F8FAFC" stroke-width="0.196371"/>
<path d="M161.607 254.933C188.054 261.014 213.523 287.273 222.937 299.469C207.649 284.47 175.301 250.093 155.838 258.74L156.974 257.771L161.607 254.933Z" fill="white" stroke="#F8FAFC" stroke-width="0.196371"/>
</g>
<path d="M173.183 103.769L176.018 98.8103L179.244 100.655L178.813 101.408L176.486 100.077L175.716 101.423L177.876 102.658L177.446 103.412L175.286 102.176L174.512 103.53L176.858 104.872L176.427 105.625L173.183 103.769ZM181.79 105.06L180.941 104.691C180.965 104.597 180.968 104.498 180.953 104.395C180.938 104.293 180.897 104.193 180.828 104.096C180.759 103.999 180.657 103.911 180.522 103.834C180.339 103.73 180.163 103.681 179.994 103.689C179.826 103.698 179.707 103.766 179.636 103.893C179.573 104 179.562 104.111 179.604 104.225C179.648 104.34 179.751 104.473 179.915 104.625L180.472 105.123C180.781 105.4 180.973 105.67 181.05 105.932C181.129 106.196 181.093 106.461 180.942 106.728C180.807 106.962 180.62 107.129 180.382 107.231C180.146 107.332 179.881 107.364 179.584 107.327C179.288 107.291 178.985 107.184 178.675 107.007C178.22 106.746 177.908 106.442 177.739 106.092C177.571 105.741 177.559 105.38 177.701 105.007L178.603 105.413C178.546 105.603 178.556 105.777 178.633 105.935C178.71 106.092 178.849 106.229 179.051 106.344C179.259 106.463 179.451 106.516 179.625 106.502C179.802 106.49 179.926 106.421 179.998 106.295C180.059 106.188 180.068 106.077 180.026 105.96C179.985 105.845 179.889 105.719 179.739 105.584L179.181 105.088C178.867 104.81 178.674 104.534 178.604 104.26C178.534 103.985 178.578 103.712 178.734 103.442C178.864 103.212 179.04 103.048 179.262 102.953C179.486 102.856 179.737 102.826 180.016 102.864C180.297 102.9 180.586 103.003 180.883 103.173C181.319 103.422 181.609 103.711 181.753 104.04C181.899 104.37 181.911 104.71 181.79 105.06ZM182.609 109.256C182.238 109.044 181.965 108.78 181.792 108.464C181.621 108.15 181.545 107.808 181.566 107.439C181.589 107.068 181.708 106.695 181.923 106.319C182.139 105.941 182.403 105.65 182.713 105.444C183.025 105.236 183.359 105.127 183.716 105.117C184.075 105.107 184.437 105.205 184.8 105.413C185.102 105.585 185.337 105.794 185.506 106.038C185.677 106.282 185.775 106.544 185.798 106.825C185.822 107.105 185.768 107.384 185.634 107.663L184.796 107.184C184.865 106.986 184.869 106.79 184.81 106.598C184.753 106.405 184.619 106.248 184.408 106.127C184.229 106.024 184.044 105.983 183.853 106.002C183.663 106.02 183.478 106.097 183.3 106.232C183.123 106.369 182.963 106.562 182.82 106.813C182.675 107.066 182.588 107.305 182.558 107.53C182.529 107.753 182.553 107.953 182.631 108.128C182.711 108.302 182.842 108.441 183.025 108.546C183.154 108.62 183.283 108.661 183.412 108.671C183.544 108.68 183.672 108.658 183.795 108.604C183.918 108.55 184.03 108.463 184.133 108.344L184.971 108.823C184.799 109.074 184.588 109.263 184.338 109.39C184.089 109.515 183.816 109.569 183.519 109.552C183.224 109.533 182.92 109.434 182.609 109.256ZM184.963 110.506L187.09 106.787L187.94 107.273L187.586 107.893L187.624 107.915C187.815 107.739 188.026 107.64 188.257 107.618C188.491 107.595 188.714 107.644 188.927 107.766C188.976 107.794 189.028 107.827 189.085 107.866C189.145 107.905 189.192 107.939 189.228 107.971L188.767 108.777C188.737 108.743 188.685 108.698 188.61 108.642C188.537 108.585 188.463 108.536 188.389 108.493C188.229 108.402 188.066 108.355 187.899 108.351C187.734 108.347 187.581 108.385 187.439 108.464C187.297 108.544 187.181 108.662 187.09 108.821L185.84 111.007L184.963 110.506ZM189.095 112.965C188.731 112.757 188.462 112.497 188.287 112.185C188.112 111.873 188.034 111.531 188.051 111.16C188.07 110.789 188.189 110.412 188.409 110.028C188.629 109.644 188.894 109.349 189.204 109.143C189.517 108.938 189.851 108.832 190.209 108.824C190.567 108.817 190.927 108.917 191.291 109.124C191.654 109.332 191.923 109.592 192.098 109.904C192.273 110.216 192.35 110.558 192.33 110.93C192.312 111.303 192.193 111.682 191.973 112.066C191.754 112.45 191.488 112.744 191.177 112.947C190.867 113.152 190.534 113.257 190.176 113.265C189.818 113.272 189.458 113.172 189.095 112.965ZM189.501 112.265C189.698 112.378 189.894 112.418 190.088 112.385C190.283 112.351 190.465 112.261 190.635 112.114C190.807 111.968 190.957 111.781 191.086 111.555C191.216 111.328 191.301 111.103 191.34 110.881C191.382 110.659 191.368 110.455 191.298 110.269C191.228 110.084 191.095 109.935 190.898 109.822C190.696 109.707 190.497 109.666 190.3 109.699C190.105 109.733 189.921 109.824 189.749 109.971C189.579 110.119 189.429 110.306 189.299 110.534C189.17 110.76 189.085 110.983 189.044 111.204C189.005 111.426 189.021 111.63 189.09 111.815C189.162 112 189.299 112.15 189.501 112.265ZM192.323 114.715L193.399 110.394L194.293 110.905L193.451 113.894L193.485 113.914L195.649 111.681L196.533 112.186L195.714 115.169L195.75 115.19L197.881 112.957L198.777 113.47L195.597 116.587L194.684 116.065L195.424 113.152L195.373 113.123L193.239 115.238L192.323 114.715ZM198.993 118.528L201.828 113.569L203.688 114.633C204.069 114.85 204.348 115.104 204.525 115.394C204.704 115.685 204.788 115.992 204.778 116.316C204.771 116.64 204.677 116.959 204.497 117.274C204.316 117.592 204.087 117.836 203.812 118.007C203.537 118.177 203.228 118.258 202.885 118.251C202.543 118.242 202.181 118.128 201.798 117.909L200.566 117.204L200.988 116.466L202.1 117.101C202.322 117.229 202.527 117.294 202.713 117.298C202.9 117.302 203.065 117.255 203.211 117.158C203.358 117.062 203.482 116.927 203.582 116.751C203.683 116.575 203.737 116.4 203.744 116.226C203.753 116.053 203.707 115.889 203.605 115.732C203.507 115.575 203.345 115.433 203.121 115.304L202.297 114.833L199.891 119.042L198.993 118.528ZM204.303 121.664C204.067 121.53 203.879 121.366 203.738 121.174C203.6 120.982 203.523 120.771 203.508 120.542C203.495 120.314 203.559 120.078 203.698 119.834C203.818 119.624 203.956 119.473 204.112 119.38C204.268 119.287 204.436 119.238 204.617 119.232C204.798 119.226 204.985 119.25 205.177 119.304C205.371 119.358 205.564 119.426 205.756 119.51C205.987 119.612 206.175 119.693 206.321 119.753C206.468 119.811 206.583 119.839 206.666 119.835C206.752 119.83 206.819 119.786 206.867 119.702L206.876 119.688C206.98 119.505 207.007 119.333 206.956 119.171C206.905 119.009 206.778 118.87 206.574 118.754C206.36 118.631 206.163 118.581 205.983 118.602C205.805 118.625 205.658 118.687 205.542 118.79L204.79 118.206C204.983 118.017 205.198 117.889 205.433 117.822C205.669 117.754 205.917 117.743 206.175 117.79C206.434 117.835 206.693 117.932 206.953 118.08C207.132 118.183 207.299 118.306 207.452 118.449C207.606 118.593 207.728 118.755 207.82 118.936C207.912 119.115 207.956 119.313 207.95 119.528C207.947 119.744 207.874 119.976 207.733 120.223L206.31 122.712L205.467 122.23L205.759 121.719L205.73 121.703C205.618 121.776 205.487 121.83 205.339 121.865C205.193 121.899 205.031 121.902 204.855 121.874C204.68 121.845 204.497 121.775 204.303 121.664ZM204.899 121.15C205.075 121.251 205.247 121.304 205.416 121.308C205.586 121.311 205.739 121.274 205.874 121.197C206.012 121.122 206.12 121.015 206.198 120.878L206.449 120.44C206.409 120.447 206.35 120.441 206.272 120.423C206.197 120.405 206.115 120.38 206.025 120.349C205.936 120.317 205.849 120.284 205.764 120.25C205.678 120.217 205.604 120.187 205.541 120.162C205.4 120.105 205.267 120.067 205.14 120.048C205.014 120.029 204.9 120.039 204.799 120.078C204.698 120.115 204.616 120.19 204.551 120.303C204.459 120.464 204.448 120.62 204.519 120.769C204.59 120.919 204.716 121.046 204.899 121.15ZM206.805 124.846C206.686 124.778 206.581 124.705 206.49 124.628C206.4 124.553 206.332 124.486 206.286 124.428L206.88 123.861C206.986 123.971 207.09 124.054 207.191 124.11C207.292 124.165 207.398 124.184 207.509 124.166C207.621 124.151 207.743 124.088 207.877 123.978L208.067 123.82L208.889 119.252L209.819 119.784L209.07 123.083L209.109 123.105L211.574 120.787L212.507 121.321L208.633 124.639C208.451 124.796 208.263 124.912 208.068 124.987C207.872 125.063 207.67 125.091 207.461 125.07C207.253 125.052 207.034 124.977 206.805 124.846ZM210.986 125.387L213.113 121.667L213.951 122.146L213.59 122.778L213.633 122.803C213.833 122.635 214.056 122.542 214.304 122.525C214.552 122.506 214.8 122.568 215.049 122.71C215.301 122.854 215.478 123.037 215.581 123.258C215.686 123.479 215.714 123.715 215.665 123.965L215.704 123.987C215.904 123.828 216.137 123.742 216.403 123.731C216.671 123.72 216.939 123.791 217.209 123.945C217.551 124.141 217.769 124.409 217.861 124.749C217.954 125.089 217.882 125.466 217.644 125.881L216.217 128.377L215.338 127.875L216.688 125.514C216.82 125.283 216.855 125.079 216.793 124.903C216.732 124.724 216.613 124.584 216.436 124.483C216.224 124.362 216.021 124.334 215.826 124.398C215.633 124.461 215.477 124.598 215.357 124.807L214.03 127.127L213.171 126.636L214.541 124.238C214.651 124.046 214.681 123.86 214.63 123.679C214.581 123.498 214.464 123.355 214.278 123.249C214.152 123.177 214.019 123.144 213.879 123.149C213.74 123.153 213.606 123.196 213.478 123.277C213.351 123.356 213.244 123.473 213.156 123.626L211.863 125.888L210.986 125.387ZM218.711 129.9C218.338 129.687 218.06 129.425 217.878 129.115C217.698 128.805 217.617 128.465 217.635 128.096C217.654 127.726 217.775 127.346 217.997 126.957C218.216 126.574 218.481 126.28 218.791 126.074C219.104 125.867 219.438 125.759 219.794 125.748C220.15 125.735 220.506 125.83 220.861 126.033C221.09 126.165 221.285 126.325 221.446 126.516C221.61 126.706 221.726 126.922 221.795 127.165C221.865 127.409 221.878 127.675 221.833 127.964C221.788 128.252 221.673 128.558 221.486 128.885L221.333 129.153L218.284 127.41L218.622 126.819L220.83 128.082C220.925 127.913 220.974 127.743 220.978 127.572C220.982 127.399 220.943 127.238 220.858 127.089C220.776 126.941 220.651 126.819 220.483 126.723C220.304 126.621 220.121 126.574 219.936 126.584C219.751 126.592 219.581 126.645 219.425 126.742C219.271 126.838 219.146 126.969 219.049 127.134L218.754 127.65C218.631 127.866 218.564 128.075 218.554 128.275C218.546 128.473 218.589 128.654 218.684 128.818C218.78 128.98 218.923 129.115 219.114 129.224C219.241 129.297 219.367 129.345 219.49 129.369C219.615 129.391 219.735 129.388 219.852 129.36C219.968 129.333 220.076 129.278 220.175 129.195L220.941 129.755C220.765 129.942 220.559 130.074 220.321 130.153C220.086 130.23 219.831 130.249 219.556 130.21C219.282 130.169 219 130.065 218.711 129.9ZM223.271 129.519L222.025 131.699L221.148 131.197L223.275 127.478L224.113 127.957L223.751 128.589L223.795 128.614C223.999 128.455 224.23 128.367 224.488 128.352C224.747 128.337 225.015 128.409 225.293 128.568C225.55 128.715 225.742 128.897 225.869 129.116C225.999 129.336 226.056 129.579 226.042 129.848C226.03 130.117 225.938 130.4 225.766 130.696L224.412 133.064L223.536 132.563L224.812 130.33C224.954 130.081 225.001 129.85 224.952 129.636C224.905 129.422 224.768 129.251 224.542 129.122C224.389 129.034 224.233 128.99 224.075 128.989C223.919 128.988 223.772 129.031 223.632 129.118C223.494 129.206 223.373 129.34 223.271 129.519ZM229.287 130.916L228.9 131.594L226.761 130.371L227.149 129.693L229.287 130.916ZM228.187 129.104L229.063 129.605L227.066 133.097C226.999 133.215 226.965 133.316 226.965 133.399C226.967 133.481 226.991 133.551 227.038 133.608C227.085 133.665 227.144 133.714 227.217 133.755C227.272 133.787 227.324 133.811 227.374 133.829C227.426 133.848 227.465 133.861 227.493 133.868L227.249 134.638C227.193 134.627 227.116 134.607 227.018 134.576C226.921 134.547 226.81 134.498 226.683 134.43C226.46 134.311 226.281 134.165 226.147 133.992C226.013 133.817 225.939 133.622 225.925 133.408C225.912 133.195 225.972 132.973 226.107 132.741L228.187 129.104Z" fill="black"/>
<path d="M115.84 99.4647L117.097 94.4252L117.942 94.9086L116.9 98.5444L116.941 98.5674L119.599 95.856L120.368 96.2958L119.38 99.9652L119.418 99.987L122.025 97.2433L122.87 97.7267L119.164 101.366L118.389 100.922L119.261 97.3808L119.227 97.3614L116.615 99.9081L115.84 99.4647ZM121.467 102.769C121.261 102.652 121.096 102.509 120.973 102.341C120.852 102.172 120.785 101.988 120.772 101.787C120.76 101.588 120.816 101.381 120.938 101.168C121.043 100.984 121.163 100.852 121.3 100.77C121.436 100.689 121.584 100.646 121.742 100.641C121.901 100.636 122.064 100.657 122.232 100.704C122.402 100.751 122.571 100.811 122.739 100.885C122.941 100.974 123.105 101.045 123.233 101.097C123.361 101.148 123.462 101.172 123.535 101.169C123.61 101.165 123.669 101.126 123.711 101.053L123.718 101.04C123.809 100.88 123.833 100.73 123.788 100.588C123.744 100.446 123.632 100.325 123.454 100.223C123.267 100.115 123.094 100.071 122.937 100.09C122.782 100.11 122.653 100.165 122.551 100.254L121.893 99.7432C122.062 99.5777 122.25 99.4658 122.456 99.4073C122.663 99.3474 122.879 99.338 123.105 99.3791C123.331 99.4187 123.558 99.5035 123.786 99.6336C123.943 99.7232 124.088 99.8308 124.223 99.9564C124.357 100.082 124.464 100.224 124.544 100.382C124.625 100.539 124.663 100.712 124.659 100.9C124.655 101.089 124.592 101.292 124.468 101.508L123.223 103.686L122.485 103.265L122.741 102.818L122.716 102.803C122.617 102.867 122.503 102.914 122.373 102.945C122.245 102.975 122.104 102.977 121.95 102.953C121.797 102.927 121.636 102.866 121.467 102.769ZM121.988 102.32C122.142 102.408 122.293 102.454 122.441 102.458C122.589 102.46 122.723 102.428 122.842 102.361C122.962 102.295 123.057 102.202 123.125 102.082L123.345 101.698C123.309 101.704 123.258 101.699 123.19 101.683C123.124 101.668 123.052 101.646 122.974 101.618C122.896 101.591 122.82 101.562 122.745 101.532C122.67 101.503 122.605 101.477 122.55 101.455C122.427 101.405 122.31 101.372 122.2 101.355C122.089 101.339 121.989 101.348 121.901 101.381C121.813 101.414 121.741 101.479 121.684 101.578C121.604 101.719 121.594 101.855 121.656 101.986C121.718 102.117 121.829 102.228 121.988 102.32ZM127.242 100.227L124.761 104.566L123.994 104.127L126.475 99.7882L127.242 100.227ZM128.798 101.116L126.317 105.456L125.55 105.017L128.031 100.678L128.798 101.116ZM128.51 106.794C128.183 106.607 127.94 106.378 127.781 106.107C127.623 105.835 127.552 105.538 127.568 105.215C127.585 104.891 127.69 104.559 127.885 104.218C128.077 103.884 128.308 103.626 128.58 103.446C128.854 103.265 129.146 103.17 129.457 103.161C129.769 103.15 130.08 103.233 130.391 103.411C130.592 103.525 130.762 103.666 130.903 103.833C131.046 103.999 131.148 104.188 131.208 104.401C131.27 104.614 131.281 104.847 131.241 105.1C131.202 105.352 131.101 105.62 130.938 105.905L130.804 106.14L128.136 104.615L128.432 104.098L130.364 105.203C130.447 105.055 130.49 104.907 130.493 104.757C130.497 104.605 130.462 104.464 130.389 104.334C130.316 104.205 130.207 104.098 130.06 104.014C129.903 103.924 129.744 103.884 129.581 103.892C129.42 103.899 129.271 103.945 129.134 104.03C129 104.115 128.89 104.229 128.806 104.374L128.548 104.825C128.439 105.014 128.381 105.196 128.373 105.372C128.365 105.545 128.403 105.704 128.486 105.847C128.57 105.989 128.695 106.107 128.862 106.203C128.974 106.266 129.083 106.309 129.192 106.329C129.301 106.348 129.406 106.346 129.508 106.322C129.61 106.297 129.704 106.249 129.791 106.177L130.461 106.667C130.307 106.83 130.127 106.946 129.919 107.015C129.713 107.083 129.49 107.099 129.249 107.065C129.009 107.029 128.763 106.939 128.51 106.794ZM134.128 105.604L133.789 106.197L131.918 105.127L132.257 104.534L134.128 105.604ZM133.165 104.018L133.932 104.457L132.185 107.512C132.126 107.615 132.096 107.703 132.096 107.776C132.098 107.848 132.119 107.909 132.16 107.959C132.201 108.009 132.253 108.052 132.317 108.088C132.365 108.116 132.411 108.137 132.454 108.153C132.499 108.169 132.534 108.18 132.558 108.187L132.345 108.86C132.296 108.851 132.228 108.833 132.142 108.806C132.058 108.781 131.96 108.738 131.85 108.679C131.654 108.574 131.498 108.446 131.38 108.295C131.264 108.142 131.199 107.972 131.186 107.784C131.174 107.598 131.228 107.403 131.345 107.201L133.165 104.018ZM134.422 110.091L136.904 105.751L138.565 106.701C138.878 106.881 139.111 107.079 139.262 107.297C139.415 107.514 139.495 107.736 139.501 107.965C139.509 108.194 139.451 108.416 139.328 108.631C139.227 108.807 139.107 108.939 138.967 109.026C138.828 109.112 138.68 109.161 138.521 109.173C138.362 109.185 138.202 109.168 138.042 109.121L138.017 109.163C138.166 109.26 138.287 109.391 138.379 109.558C138.473 109.725 138.521 109.911 138.523 110.119C138.524 110.326 138.462 110.539 138.336 110.76C138.208 110.984 138.038 111.155 137.826 111.272C137.616 111.388 137.372 111.435 137.094 111.413C136.816 111.391 136.511 111.285 136.179 111.095L134.422 110.091ZM135.584 109.883L136.429 110.367C136.715 110.53 136.951 110.593 137.139 110.556C137.329 110.519 137.474 110.414 137.572 110.241C137.646 110.113 137.68 109.979 137.676 109.839C137.672 109.699 137.628 109.565 137.545 109.439C137.463 109.311 137.34 109.2 137.178 109.108L136.311 108.612L135.584 109.883ZM136.635 108.046L137.412 108.491C137.548 108.569 137.684 108.614 137.821 108.626C137.959 108.638 138.085 108.615 138.2 108.559C138.317 108.502 138.411 108.41 138.484 108.283C138.58 108.115 138.6 107.943 138.544 107.766C138.489 107.59 138.345 107.436 138.114 107.304L137.319 106.849L136.635 108.046ZM139.209 112.915C139.003 112.797 138.838 112.654 138.715 112.486C138.593 112.317 138.527 112.133 138.514 111.932C138.502 111.733 138.558 111.526 138.679 111.313C138.784 111.13 138.905 110.997 139.042 110.916C139.178 110.834 139.326 110.791 139.484 110.786C139.642 110.781 139.806 110.802 139.973 110.85C140.144 110.896 140.313 110.956 140.48 111.03C140.682 111.119 140.847 111.19 140.975 111.242C141.103 111.293 141.204 111.317 141.277 111.314C141.352 111.31 141.411 111.271 141.453 111.198L141.46 111.185C141.551 111.026 141.575 110.875 141.53 110.733C141.486 110.592 141.374 110.47 141.196 110.368C141.008 110.261 140.836 110.216 140.679 110.235C140.523 110.255 140.395 110.31 140.293 110.4L139.635 109.888C139.804 109.723 139.992 109.611 140.198 109.553C140.405 109.493 140.621 109.483 140.847 109.524C141.073 109.564 141.3 109.649 141.528 109.779C141.685 109.868 141.83 109.976 141.964 110.102C142.099 110.227 142.206 110.369 142.286 110.527C142.367 110.684 142.405 110.857 142.4 111.045C142.397 111.235 142.334 111.437 142.21 111.654L140.965 113.832L140.227 113.41L140.483 112.963L140.458 112.948C140.359 113.012 140.245 113.059 140.115 113.09C139.987 113.12 139.846 113.123 139.692 113.098C139.539 113.073 139.378 113.012 139.209 112.915ZM139.73 112.465C139.884 112.553 140.035 112.599 140.183 112.603C140.331 112.605 140.465 112.573 140.584 112.506C140.704 112.44 140.799 112.347 140.867 112.227L141.087 111.843C141.051 111.849 141 111.844 140.932 111.828C140.866 111.813 140.794 111.791 140.716 111.764C140.638 111.736 140.562 111.707 140.487 111.678C140.412 111.648 140.347 111.622 140.292 111.6C140.169 111.55 140.052 111.517 139.941 111.501C139.831 111.484 139.731 111.493 139.643 111.527C139.555 111.559 139.483 111.624 139.426 111.723C139.345 111.864 139.336 112.001 139.398 112.132C139.46 112.263 139.571 112.374 139.73 112.465ZM144.984 110.372L142.503 114.711L141.736 114.273L144.217 109.933L144.984 110.372ZM144.19 115.763C143.984 115.645 143.82 115.503 143.696 115.335C143.575 115.166 143.508 114.982 143.495 114.781C143.484 114.582 143.539 114.375 143.661 114.162C143.766 113.978 143.887 113.846 144.023 113.764C144.16 113.683 144.307 113.64 144.466 113.635C144.624 113.63 144.787 113.651 144.955 113.698C145.125 113.745 145.294 113.805 145.462 113.879C145.664 113.968 145.829 114.039 145.956 114.091C146.085 114.142 146.186 114.166 146.259 114.163C146.334 114.159 146.393 114.12 146.435 114.047L146.442 114.034C146.533 113.874 146.556 113.724 146.512 113.582C146.467 113.44 146.356 113.319 146.178 113.217C145.99 113.109 145.818 113.065 145.661 113.084C145.505 113.104 145.376 113.159 145.274 113.248L144.616 112.737C144.786 112.572 144.974 112.46 145.18 112.401C145.386 112.341 145.603 112.332 145.828 112.373C146.055 112.413 146.282 112.497 146.509 112.628C146.666 112.717 146.812 112.825 146.946 112.95C147.081 113.076 147.188 113.218 147.268 113.376C147.349 113.533 147.387 113.706 147.382 113.894C147.379 114.083 147.315 114.286 147.192 114.502L145.946 116.68L145.209 116.259L145.465 115.812L145.439 115.797C145.341 115.861 145.227 115.908 145.097 115.939C144.969 115.969 144.828 115.971 144.673 115.947C144.521 115.921 144.36 115.86 144.19 115.763ZM144.712 115.314C144.866 115.402 145.017 115.448 145.164 115.452C145.313 115.454 145.447 115.422 145.566 115.355C145.686 115.289 145.78 115.196 145.849 115.075L146.068 114.692C146.033 114.698 145.982 114.693 145.914 114.677C145.848 114.661 145.776 114.64 145.698 114.612C145.62 114.585 145.544 114.556 145.469 114.526C145.394 114.497 145.329 114.471 145.274 114.449C145.151 114.399 145.034 114.366 144.923 114.349C144.813 114.333 144.713 114.342 144.624 114.375C144.537 114.407 144.464 114.473 144.408 114.572C144.327 114.713 144.318 114.849 144.38 114.98C144.442 115.111 144.552 115.222 144.712 115.314ZM148.575 115.653L147.485 117.56L146.718 117.121L148.579 113.867L149.312 114.286L148.995 114.839L149.034 114.861C149.213 114.722 149.415 114.645 149.64 114.631C149.867 114.618 150.101 114.682 150.344 114.82C150.569 114.949 150.737 115.109 150.849 115.3C150.962 115.492 151.012 115.706 151 115.94C150.989 116.176 150.909 116.423 150.759 116.682L149.574 118.754L148.807 118.316L149.924 116.362C150.048 116.145 150.089 115.942 150.046 115.755C150.005 115.568 149.885 115.418 149.688 115.305C149.553 115.228 149.417 115.19 149.279 115.189C149.142 115.188 149.013 115.226 148.891 115.302C148.77 115.379 148.665 115.496 148.575 115.653ZM151.737 120.076C151.412 119.89 151.173 119.659 151.022 119.383C150.872 119.108 150.806 118.809 150.824 118.485C150.844 118.162 150.948 117.835 151.137 117.506C151.326 117.175 151.556 116.92 151.828 116.74C152.1 116.558 152.393 116.463 152.705 116.454C153.02 116.445 153.336 116.531 153.654 116.713C153.918 116.864 154.124 117.046 154.272 117.26C154.421 117.473 154.507 117.703 154.527 117.949C154.548 118.194 154.501 118.438 154.383 118.682L153.65 118.263C153.71 118.089 153.714 117.918 153.663 117.75C153.613 117.581 153.496 117.443 153.311 117.338C153.154 117.248 152.992 117.212 152.825 117.228C152.658 117.244 152.497 117.311 152.341 117.43C152.187 117.55 152.047 117.719 151.922 117.938C151.795 118.16 151.718 118.369 151.692 118.566C151.666 118.761 151.688 118.935 151.756 119.088C151.826 119.241 151.941 119.363 152.1 119.454C152.213 119.519 152.326 119.555 152.44 119.564C152.555 119.572 152.667 119.552 152.774 119.505C152.882 119.458 152.98 119.382 153.07 119.278L153.803 119.697C153.653 119.917 153.469 120.082 153.25 120.193C153.031 120.302 152.793 120.35 152.533 120.334C152.275 120.318 152.009 120.232 151.737 120.076ZM155.201 122.057C154.875 121.87 154.632 121.641 154.472 121.37C154.315 121.098 154.244 120.801 154.26 120.478C154.276 120.154 154.382 119.822 154.577 119.481C154.768 119.147 155 118.889 155.271 118.709C155.545 118.528 155.838 118.433 156.149 118.423C156.46 118.412 156.772 118.496 157.082 118.673C157.283 118.788 157.454 118.929 157.595 119.096C157.738 119.262 157.839 119.451 157.9 119.664C157.961 119.877 157.972 120.11 157.933 120.363C157.894 120.614 157.793 120.883 157.63 121.168L157.495 121.403L154.828 119.878L155.123 119.361L157.056 120.466C157.138 120.318 157.181 120.169 157.184 120.019C157.188 119.868 157.154 119.727 157.08 119.597C157.008 119.468 156.898 119.361 156.751 119.277C156.595 119.187 156.435 119.147 156.273 119.155C156.111 119.162 155.962 119.208 155.826 119.293C155.691 119.377 155.582 119.492 155.497 119.637L155.239 120.088C155.131 120.277 155.073 120.459 155.064 120.635C155.057 120.808 155.094 120.967 155.178 121.11C155.262 121.252 155.387 121.37 155.553 121.465C155.665 121.529 155.775 121.571 155.883 121.592C155.992 121.611 156.098 121.609 156.199 121.585C156.301 121.56 156.396 121.512 156.482 121.44L157.152 121.93C156.999 122.093 156.818 122.209 156.61 122.278C156.404 122.346 156.181 122.362 155.94 122.328C155.7 122.292 155.454 122.201 155.201 122.057Z" fill="#19191B"/>
<path d="M183.282 134.577L182.977 135.111L177.531 131.997L177.837 131.464L183.282 134.577ZM182.623 135.73L182.317 136.264L176.872 133.151L177.177 132.617L182.623 135.73ZM183.951 132.311L180.825 137.777L179.944 137.273L179.495 132.075L179.452 132.051L177.323 135.775L176.33 135.207L179.456 129.74L180.345 130.249L180.785 135.445L180.835 135.474L182.966 131.747L183.951 132.311ZM182.12 138.518L187.077 135.246L187.098 135.208L184.4 133.665L184.873 132.838L188.596 134.967L188.112 135.813L183.148 139.105L182.12 138.518ZM188.175 142.118C187.736 141.867 187.422 141.54 187.235 141.138C187.05 140.734 186.993 140.273 187.065 139.755C187.14 139.236 187.348 138.678 187.689 138.082C188.032 137.487 188.406 137.028 188.812 136.706C189.222 136.382 189.646 136.2 190.085 136.158C190.526 136.118 190.966 136.223 191.404 136.473C191.841 136.723 192.155 137.049 192.343 137.45C192.532 137.85 192.59 138.309 192.517 138.824C192.446 139.341 192.241 139.896 191.901 140.491C191.559 141.089 191.182 141.551 190.771 141.878C190.363 142.204 189.938 142.388 189.495 142.43C189.055 142.474 188.615 142.37 188.175 142.118ZM188.653 141.283C188.995 141.478 189.361 141.464 189.75 141.241C190.143 141.017 190.527 140.576 190.903 139.92C191.151 139.486 191.314 139.095 191.392 138.748C191.47 138.4 191.47 138.105 191.39 137.86C191.311 137.615 191.158 137.427 190.932 137.298C190.592 137.103 190.227 137.119 189.836 137.344C189.446 137.567 189.064 138.004 188.69 138.654C188.439 139.089 188.273 139.481 188.192 139.829C188.113 140.178 188.113 140.476 188.192 140.721C188.272 140.966 188.425 141.153 188.653 141.283ZM192.587 143.511L192.385 143.785C192.232 143.995 192.057 144.197 191.861 144.392C191.665 144.59 191.477 144.766 191.295 144.923C191.114 145.079 190.97 145.2 190.863 145.288L190.212 144.916C190.299 144.821 190.417 144.693 190.567 144.531C190.718 144.369 190.881 144.184 191.055 143.974C191.229 143.764 191.392 143.543 191.544 143.311L191.733 143.023L192.587 143.511ZM194.98 146.009C194.54 145.758 194.227 145.431 194.039 145.029C193.854 144.625 193.798 144.164 193.87 143.646C193.945 143.127 194.153 142.569 194.493 141.973C194.836 141.378 195.211 140.919 195.617 140.597C196.026 140.273 196.45 140.091 196.89 140.049C197.331 140.009 197.77 140.114 198.208 140.364C198.646 140.614 198.959 140.94 199.148 141.341C199.337 141.741 199.395 142.2 199.322 142.715C199.251 143.232 199.045 143.787 198.705 144.382C198.364 144.98 197.987 145.442 197.576 145.769C197.167 146.095 196.742 146.279 196.3 146.321C195.859 146.365 195.42 146.261 194.98 146.009ZM195.458 145.174C195.799 145.369 196.165 145.355 196.555 145.132C196.948 144.908 197.332 144.467 197.707 143.811C197.955 143.377 198.119 142.986 198.197 142.639C198.275 142.291 198.274 141.996 198.194 141.751C198.115 141.506 197.963 141.318 197.737 141.189C197.397 140.994 197.031 141.01 196.64 141.235C196.251 141.458 195.869 141.895 195.494 142.545C195.243 142.98 195.077 143.372 194.996 143.72C194.917 144.069 194.917 144.367 194.996 144.612C195.076 144.857 195.23 145.044 195.458 145.174ZM199.993 148.876C199.554 148.625 199.24 148.298 199.053 147.895C198.868 147.492 198.811 147.031 198.883 146.513C198.958 145.994 199.166 145.436 199.507 144.84C199.85 144.245 200.224 143.786 200.631 143.463C201.04 143.14 201.464 142.958 201.903 142.916C202.344 142.876 202.784 142.981 203.222 143.231C203.659 143.481 203.973 143.807 204.162 144.207C204.35 144.608 204.408 145.066 204.335 145.582C204.264 146.099 204.059 146.654 203.719 147.248C203.377 147.846 203 148.309 202.589 148.636C202.181 148.962 201.756 149.146 201.313 149.188C200.873 149.232 200.433 149.128 199.993 148.876ZM200.471 148.041C200.813 148.236 201.179 148.222 201.568 147.999C201.961 147.775 202.345 147.334 202.721 146.678C202.969 146.243 203.132 145.853 203.21 145.505C203.288 145.158 203.288 144.862 203.208 144.618C203.129 144.372 202.976 144.185 202.75 144.056C202.41 143.861 202.045 143.877 201.654 144.102C201.264 144.325 200.882 144.762 200.508 145.412C200.257 145.847 200.091 146.239 200.01 146.587C199.931 146.936 199.931 147.233 200.01 147.479C200.09 147.723 200.243 147.911 200.471 148.041ZM205.007 151.743C204.567 151.492 204.254 151.165 204.066 150.762C203.881 150.359 203.825 149.898 203.897 149.38C203.972 148.861 204.18 148.303 204.52 147.707C204.863 147.112 205.238 146.653 205.644 146.33C206.053 146.007 206.477 145.825 206.917 145.783C207.358 145.742 207.797 145.847 208.235 146.098C208.673 146.348 208.986 146.674 209.175 147.074C209.364 147.475 209.422 147.933 209.349 148.449C209.278 148.966 209.072 149.521 208.732 150.115C208.391 150.713 208.014 151.176 207.603 151.502C207.194 151.829 206.769 152.013 206.327 152.055C205.886 152.098 205.447 151.994 205.007 151.743ZM205.485 150.908C205.826 151.103 206.192 151.089 206.582 150.866C206.975 150.642 207.359 150.201 207.734 149.544C207.982 149.11 208.146 148.72 208.224 148.372C208.302 148.025 208.301 147.729 208.221 147.485C208.142 147.239 207.99 147.052 207.764 146.922C207.424 146.728 207.058 146.744 206.667 146.969C206.278 147.192 205.896 147.629 205.521 148.279C205.27 148.714 205.104 149.106 205.023 149.454C204.944 149.803 204.944 150.1 205.023 150.346C205.103 150.59 205.257 150.777 205.485 150.908Z" fill="#42D8B9"/>
<path d="M103.21 120.727L102.371 120.247L106.379 116.782L107.35 117.337L106.398 122.551L105.559 122.071L106.373 117.959L106.339 117.939L103.21 120.727ZM104.21 119.042L106.498 120.35L106.137 120.981L103.849 119.673L104.21 119.042ZM106.936 122.858L108.797 119.604L109.53 120.023L109.214 120.576L109.252 120.598C109.426 120.45 109.622 120.369 109.838 120.354C110.056 120.338 110.273 120.392 110.491 120.516C110.711 120.642 110.866 120.802 110.956 120.996C111.048 121.189 111.072 121.395 111.03 121.614L111.063 121.634C111.239 121.494 111.443 121.419 111.675 121.41C111.91 121.399 112.145 121.462 112.381 121.597C112.68 121.768 112.87 122.002 112.951 122.3C113.032 122.597 112.969 122.928 112.762 123.291L111.512 125.475L110.743 125.035L111.925 122.969C112.04 122.767 112.071 122.589 112.017 122.435C111.964 122.278 111.859 122.156 111.704 122.067C111.519 121.961 111.341 121.937 111.17 121.993C111.002 122.048 110.865 122.168 110.76 122.351L109.599 124.381L108.847 123.951L110.047 121.853C110.143 121.685 110.169 121.522 110.124 121.363C110.081 121.206 109.979 121.081 109.816 120.988C109.706 120.925 109.589 120.896 109.467 120.9C109.345 120.904 109.228 120.941 109.116 121.012C109.005 121.082 108.911 121.184 108.835 121.318L107.703 123.297L106.936 122.858ZM113.674 126.795C113.356 126.613 113.121 126.386 112.967 126.113C112.814 125.84 112.745 125.541 112.761 125.216C112.777 124.892 112.882 124.562 113.074 124.225C113.266 123.889 113.498 123.631 113.77 123.451C114.043 123.272 114.336 123.179 114.649 123.172C114.962 123.166 115.278 123.253 115.595 123.435C115.913 123.617 116.149 123.844 116.302 124.117C116.455 124.39 116.523 124.69 116.505 125.015C116.489 125.341 116.385 125.673 116.193 126.009C116.001 126.345 115.768 126.602 115.496 126.78C115.225 126.959 114.933 127.051 114.62 127.058C114.307 127.065 113.992 126.977 113.674 126.795ZM114.029 126.183C114.202 126.282 114.373 126.317 114.543 126.288C114.714 126.259 114.873 126.179 115.022 126.051C115.172 125.923 115.303 125.76 115.416 125.562C115.53 125.363 115.604 125.166 115.638 124.972C115.675 124.777 115.663 124.599 115.602 124.437C115.541 124.274 115.424 124.144 115.252 124.045C115.075 123.944 114.901 123.908 114.729 123.937C114.558 123.967 114.397 124.047 114.246 124.176C114.098 124.305 113.967 124.469 113.853 124.668C113.74 124.866 113.665 125.061 113.63 125.255C113.596 125.449 113.609 125.627 113.67 125.789C113.733 125.951 113.853 126.082 114.029 126.183ZM118.777 127.813L119.856 125.927L120.623 126.366L118.762 129.62L118.018 129.195L118.349 128.617L118.315 128.597C118.137 128.737 117.931 128.817 117.697 128.837C117.464 128.858 117.225 128.798 116.981 128.658C116.768 128.536 116.606 128.381 116.497 128.193C116.389 128.004 116.341 127.792 116.354 127.557C116.367 127.321 116.448 127.073 116.597 126.813L117.781 124.741L118.548 125.18L117.431 127.133C117.313 127.34 117.276 127.536 117.32 127.722C117.363 127.908 117.477 128.053 117.661 128.158C117.774 128.223 117.899 128.258 118.036 128.264C118.174 128.269 118.307 128.237 118.437 128.167C118.57 128.096 118.683 127.978 118.777 127.813ZM121.408 128.603L120.317 130.51L119.55 130.071L121.411 126.817L122.145 127.236L121.828 127.789L121.866 127.811C122.045 127.672 122.248 127.595 122.473 127.581C122.7 127.568 122.934 127.632 123.177 127.77C123.402 127.899 123.57 128.059 123.682 128.25C123.795 128.442 123.845 128.656 123.833 128.89C123.822 129.126 123.741 129.373 123.591 129.632L122.407 131.705L121.64 131.266L122.757 129.312C122.881 129.095 122.922 128.892 122.879 128.705C122.838 128.518 122.718 128.368 122.52 128.255C122.386 128.179 122.25 128.14 122.112 128.139C121.975 128.138 121.846 128.176 121.724 128.252C121.603 128.329 121.498 128.446 121.408 128.603ZM126.672 129.825L126.333 130.418L124.462 129.349L124.801 128.755L126.672 129.825ZM125.709 128.24L126.476 128.678L124.729 131.734C124.67 131.837 124.64 131.925 124.64 131.998C124.642 132.07 124.663 132.131 124.704 132.18C124.745 132.23 124.797 132.273 124.861 132.309C124.909 132.337 124.955 132.358 124.998 132.374C125.043 132.39 125.078 132.402 125.102 132.408L124.889 133.082C124.84 133.072 124.772 133.054 124.686 133.028C124.602 133.002 124.504 132.959 124.394 132.9C124.199 132.796 124.042 132.668 123.924 132.516C123.808 132.363 123.743 132.193 123.73 132.006C123.719 131.819 123.772 131.625 123.889 131.422L125.709 128.24ZM130.419 131.968L130.08 132.561L128.209 131.491L128.548 130.898L130.419 131.968ZM129.456 130.382L130.223 130.821L128.476 133.876C128.417 133.979 128.387 134.067 128.386 134.14C128.388 134.212 128.41 134.273 128.451 134.323C128.492 134.372 128.544 134.415 128.607 134.452C128.655 134.479 128.701 134.501 128.745 134.516C128.79 134.533 128.825 134.544 128.849 134.551L128.635 135.224C128.586 135.215 128.519 135.197 128.433 135.17C128.348 135.144 128.251 135.102 128.14 135.042C127.945 134.938 127.789 134.81 127.671 134.659C127.554 134.506 127.489 134.335 127.476 134.148C127.465 133.962 127.518 133.767 127.636 133.565L129.456 130.382ZM130.547 136.444C130.23 136.262 129.994 136.035 129.841 135.762C129.688 135.489 129.619 135.19 129.634 134.865C129.651 134.541 129.755 134.21 129.948 133.874C130.14 133.538 130.372 133.28 130.644 133.1C130.917 132.921 131.21 132.828 131.523 132.821C131.836 132.814 132.151 132.902 132.469 133.084C132.787 133.265 133.022 133.493 133.175 133.766C133.328 134.039 133.396 134.338 133.379 134.664C133.363 134.99 133.259 135.322 133.066 135.658C132.874 135.994 132.642 136.251 132.37 136.429C132.099 136.608 131.807 136.7 131.494 136.707C131.181 136.713 130.865 136.626 130.547 136.444ZM130.903 135.832C131.075 135.931 131.247 135.966 131.416 135.937C131.587 135.907 131.747 135.828 131.895 135.699C132.045 135.572 132.177 135.409 132.29 135.211C132.404 135.012 132.478 134.815 132.512 134.621C132.549 134.426 132.536 134.248 132.475 134.085C132.414 133.923 132.298 133.793 132.126 133.694C131.949 133.593 131.775 133.557 131.602 133.586C131.432 133.616 131.271 133.696 131.12 133.825C130.972 133.954 130.84 134.118 130.726 134.317C130.613 134.515 130.539 134.71 130.503 134.903C130.469 135.098 130.483 135.276 130.544 135.438C130.607 135.6 130.727 135.731 130.903 135.832ZM134.308 138.51L136.789 134.171L137.556 134.61L136.628 136.232L136.66 136.251C136.745 136.194 136.849 136.142 136.972 136.094C137.095 136.045 137.237 136.024 137.396 136.03C137.556 136.036 137.731 136.093 137.922 136.202C138.174 136.346 138.364 136.54 138.492 136.784C138.623 137.027 138.676 137.308 138.652 137.626C138.63 137.943 138.515 138.282 138.308 138.644C138.104 139.001 137.872 139.271 137.611 139.454C137.351 139.637 137.083 139.737 136.806 139.753C136.528 139.769 136.262 139.703 136.006 139.557C135.82 139.451 135.683 139.331 135.596 139.199C135.508 139.066 135.452 138.935 135.427 138.804C135.405 138.673 135.396 138.557 135.4 138.454L135.356 138.429L135.062 138.941L134.308 138.51ZM135.991 137.313C135.87 137.524 135.795 137.725 135.763 137.917C135.734 138.11 135.75 138.283 135.812 138.437C135.876 138.59 135.99 138.713 136.152 138.806C136.322 138.902 136.49 138.938 136.656 138.913C136.823 138.887 136.98 138.811 137.129 138.686C137.279 138.561 137.413 138.396 137.529 138.193C137.644 137.991 137.718 137.795 137.75 137.605C137.782 137.415 137.766 137.243 137.702 137.088C137.639 136.934 137.521 136.808 137.35 136.71C137.187 136.616 137.023 136.58 136.859 136.601C136.695 136.621 136.54 136.693 136.391 136.814C136.245 136.936 136.111 137.103 135.991 137.313ZM139.437 141.527C139.11 141.341 138.867 141.112 138.708 140.84C138.55 140.568 138.479 140.271 138.495 139.948C138.512 139.624 138.617 139.292 138.812 138.952C139.003 138.617 139.235 138.359 139.507 138.179C139.781 137.999 140.073 137.903 140.384 137.894C140.696 137.883 141.007 137.966 141.318 138.144C141.519 138.259 141.689 138.399 141.83 138.566C141.973 138.732 142.075 138.921 142.135 139.134C142.197 139.347 142.208 139.58 142.168 139.833C142.129 140.085 142.028 140.353 141.865 140.638L141.731 140.874L139.063 139.348L139.359 138.831L141.291 139.936C141.374 139.789 141.417 139.64 141.42 139.49C141.424 139.338 141.389 139.198 141.316 139.067C141.243 138.938 141.134 138.831 140.987 138.747C140.83 138.658 140.671 138.617 140.508 138.626C140.347 138.633 140.198 138.679 140.061 138.763C139.927 138.848 139.817 138.962 139.733 139.107L139.475 139.558C139.366 139.747 139.308 139.93 139.3 140.105C139.292 140.279 139.33 140.437 139.413 140.58C139.497 140.722 139.622 140.84 139.789 140.936C139.901 141 140.01 141.042 140.119 141.062C140.228 141.082 140.333 141.079 140.435 141.055C140.537 141.031 140.631 140.982 140.717 140.91L141.388 141.4C141.234 141.563 141.053 141.679 140.846 141.748C140.64 141.816 140.417 141.833 140.176 141.798C139.936 141.762 139.69 141.672 139.437 141.527ZM142.351 144.729L144.91 140.254L145.664 140.685L145.356 141.223L145.401 141.249C145.486 141.192 145.59 141.14 145.713 141.093C145.836 141.043 145.978 141.022 146.137 141.029C146.297 141.034 146.472 141.091 146.663 141.2C146.914 141.344 147.104 141.538 147.233 141.782C147.364 142.025 147.417 142.306 147.392 142.624C147.37 142.941 147.256 143.281 147.049 143.642C146.845 144 146.613 144.27 146.352 144.453C146.092 144.636 145.824 144.735 145.546 144.751C145.269 144.767 145.003 144.702 144.747 144.555C144.561 144.449 144.424 144.329 144.337 144.197C144.249 144.064 144.193 143.933 144.168 143.803C144.146 143.672 144.137 143.555 144.141 143.452L144.109 143.434L143.118 145.167L142.351 144.729ZM144.732 142.311C144.611 142.522 144.536 142.723 144.504 142.915C144.475 143.108 144.491 143.281 144.553 143.435C144.617 143.588 144.731 143.711 144.893 143.804C145.063 143.901 145.23 143.937 145.397 143.912C145.563 143.885 145.721 143.81 145.869 143.685C146.02 143.559 146.153 143.394 146.27 143.191C146.385 142.989 146.459 142.793 146.491 142.603C146.522 142.413 146.507 142.241 146.443 142.087C146.379 141.932 146.262 141.806 146.091 141.708C145.927 141.615 145.764 141.578 145.6 141.599C145.436 141.62 145.28 141.691 145.132 141.812C144.985 141.934 144.852 142.101 144.732 142.311ZM147.677 146.242C147.471 146.124 147.306 145.981 147.183 145.813C147.062 145.645 146.995 145.46 146.982 145.26C146.97 145.06 147.026 144.854 147.148 144.64C147.253 144.457 147.373 144.324 147.51 144.243C147.646 144.162 147.794 144.119 147.952 144.114C148.111 144.109 148.274 144.13 148.442 144.177C148.612 144.224 148.781 144.284 148.949 144.357C149.151 144.446 149.315 144.517 149.443 144.57C149.571 144.62 149.672 144.644 149.745 144.641C149.82 144.637 149.879 144.599 149.921 144.525L149.928 144.513C150.019 144.353 150.043 144.202 149.998 144.061C149.954 143.919 149.842 143.797 149.664 143.695C149.477 143.588 149.304 143.544 149.147 143.563C148.992 143.582 148.863 143.637 148.761 143.727L148.103 143.216C148.272 143.05 148.46 142.938 148.666 142.88C148.873 142.82 149.089 142.811 149.315 142.852C149.541 142.891 149.768 142.976 149.996 143.106C150.153 143.196 150.298 143.303 150.433 143.429C150.567 143.554 150.674 143.696 150.754 143.855C150.835 144.011 150.873 144.184 150.869 144.373C150.865 144.562 150.802 144.765 150.678 144.981L149.433 147.159L148.695 146.737L148.951 146.29L148.926 146.276C148.827 146.339 148.713 146.387 148.583 146.417C148.455 146.447 148.314 146.45 148.16 146.425C148.007 146.4 147.846 146.339 147.677 146.242ZM148.198 145.792C148.352 145.88 148.503 145.926 148.651 145.93C148.799 145.933 148.933 145.9 149.052 145.833C149.172 145.767 149.267 145.674 149.335 145.554L149.555 145.171C149.519 145.177 149.468 145.172 149.4 145.155C149.334 145.14 149.262 145.118 149.184 145.091C149.106 145.063 149.03 145.034 148.955 145.005C148.88 144.975 148.815 144.949 148.76 144.927C148.637 144.877 148.52 144.844 148.41 144.828C148.299 144.811 148.199 144.82 148.111 144.854C148.023 144.886 147.951 144.952 147.894 145.05C147.814 145.192 147.804 145.328 147.866 145.459C147.928 145.59 148.039 145.701 148.198 145.792ZM150.204 147.6L152.065 144.345L152.832 144.784L150.971 148.038L150.204 147.6ZM152.715 144.104C152.593 144.035 152.512 143.935 152.47 143.804C152.429 143.672 152.442 143.549 152.507 143.434C152.573 143.319 152.673 143.245 152.807 143.215C152.941 143.183 153.069 143.202 153.191 143.271C153.314 143.342 153.395 143.442 153.434 143.574C153.476 143.704 153.463 143.827 153.397 143.943C153.332 144.058 153.232 144.131 153.097 144.163C152.965 144.194 152.838 144.174 152.715 144.104ZM152.935 149.237C152.679 149.091 152.488 148.895 152.361 148.648C152.234 148.401 152.183 148.119 152.209 147.802C152.235 147.485 152.35 147.148 152.554 146.79C152.761 146.429 152.995 146.157 153.256 145.977C153.519 145.795 153.788 145.699 154.064 145.688C154.341 145.676 154.605 145.741 154.855 145.884C155.045 145.994 155.184 146.116 155.269 146.251C155.356 146.385 155.409 146.517 155.43 146.649C155.451 146.779 155.458 146.895 155.453 146.997L155.485 147.015L156.413 145.392L157.182 145.832L154.7 150.171L153.946 149.74L154.239 149.227L154.193 149.2C154.108 149.257 154.003 149.308 153.877 149.354C153.752 149.399 153.61 149.417 153.452 149.409C153.294 149.401 153.121 149.344 152.935 149.237ZM153.508 148.73C153.671 148.823 153.834 148.859 153.999 148.836C154.164 148.813 154.322 148.739 154.471 148.615C154.621 148.49 154.756 148.323 154.877 148.113C154.997 147.902 155.072 147.702 155.101 147.513C155.132 147.324 155.115 147.154 155.05 147.003C154.986 146.852 154.872 146.729 154.707 146.635C154.536 146.537 154.368 146.5 154.202 146.524C154.037 146.547 153.881 146.621 153.733 146.744C153.586 146.868 153.454 147.031 153.338 147.233C153.222 147.436 153.147 147.634 153.114 147.827C153.083 148.019 153.098 148.194 153.16 148.351C153.224 148.508 153.34 148.634 153.508 148.73Z" fill="#19191B"/>
<path d="M168.002 154.122L167.76 154.546L163.438 152.075L163.68 151.651L168.002 154.122ZM167.479 155.038L167.236 155.461L162.914 152.99L163.157 152.566L167.479 155.038ZM168.533 152.323L166.052 156.662L165.353 156.262L164.996 152.136L164.962 152.117L163.272 155.073L162.484 154.622L164.965 150.283L165.671 150.686L166.02 154.811L166.06 154.834L167.752 151.876L168.533 152.323ZM171.168 153.829L168.686 158.169L167.9 157.719L169.944 154.145L169.919 154.13L168.533 154.198L168.945 153.478L170.42 153.402L171.168 153.829ZM171.345 159.798C170.996 159.599 170.747 159.339 170.598 159.02C170.451 158.7 170.406 158.334 170.463 157.922C170.523 157.51 170.688 157.068 170.958 156.594C171.23 156.122 171.528 155.758 171.85 155.502C172.175 155.245 172.512 155.1 172.861 155.067C173.211 155.035 173.56 155.119 173.907 155.317C174.255 155.516 174.503 155.774 174.653 156.092C174.803 156.411 174.849 156.774 174.791 157.184C174.735 157.594 174.572 158.035 174.302 158.506C174.03 158.981 173.732 159.348 173.405 159.607C173.081 159.866 172.743 160.012 172.392 160.046C172.043 160.08 171.694 159.998 171.345 159.798ZM171.724 159.135C171.995 159.29 172.285 159.279 172.595 159.102C172.907 158.924 173.211 158.574 173.509 158.053C173.707 157.709 173.836 157.398 173.898 157.123C173.96 156.847 173.959 156.612 173.896 156.419C173.833 156.223 173.712 156.074 173.533 155.972C173.263 155.818 172.973 155.83 172.663 156.009C172.353 156.186 172.05 156.533 171.753 157.049C171.554 157.394 171.422 157.705 171.358 157.981C171.295 158.258 171.295 158.494 171.357 158.689C171.421 158.883 171.543 159.032 171.724 159.135ZM174.847 160.904L174.686 161.121C174.564 161.288 174.426 161.449 174.27 161.603C174.115 161.76 173.965 161.9 173.821 162.024C173.677 162.148 173.563 162.245 173.478 162.314L172.961 162.019C173.03 161.944 173.124 161.842 173.243 161.713C173.363 161.585 173.492 161.438 173.63 161.271C173.769 161.105 173.898 160.929 174.018 160.745L174.169 160.516L174.847 160.904ZM176.746 162.887C176.397 162.687 176.148 162.428 175.999 162.108C175.852 161.788 175.807 161.422 175.865 161.011C175.924 160.599 176.089 160.156 176.36 159.683C176.632 159.211 176.929 158.846 177.252 158.59C177.576 158.334 177.913 158.189 178.262 158.156C178.612 158.124 178.961 158.207 179.308 158.406C179.656 158.604 179.904 158.863 180.054 159.181C180.204 159.499 180.25 159.863 180.192 160.272C180.136 160.682 179.973 161.123 179.703 161.595C179.432 162.069 179.133 162.436 178.806 162.696C178.482 162.955 178.145 163.101 177.794 163.135C177.444 163.169 177.095 163.086 176.746 162.887ZM177.125 162.224C177.396 162.379 177.687 162.368 177.996 162.19C178.308 162.013 178.613 161.663 178.911 161.142C179.108 160.797 179.237 160.487 179.299 160.211C179.361 159.936 179.361 159.701 179.297 159.507C179.234 159.312 179.113 159.163 178.934 159.06C178.664 158.906 178.374 158.918 178.064 159.097C177.754 159.274 177.451 159.621 177.154 160.137C176.955 160.483 176.823 160.793 176.759 161.07C176.696 161.347 176.696 161.583 176.759 161.778C176.822 161.972 176.944 162.12 177.125 162.224ZM180.725 165.163C180.377 164.963 180.128 164.704 179.979 164.384C179.832 164.064 179.787 163.698 179.844 163.287C179.904 162.874 180.069 162.432 180.339 161.959C180.611 161.486 180.908 161.122 181.231 160.866C181.556 160.609 181.893 160.465 182.241 160.432C182.592 160.399 182.94 160.483 183.288 160.681C183.635 160.88 183.884 161.138 184.034 161.457C184.184 161.775 184.23 162.138 184.172 162.548C184.115 162.958 183.952 163.399 183.683 163.87C183.411 164.345 183.112 164.712 182.786 164.972C182.462 165.23 182.124 165.377 181.773 165.41C181.424 165.445 181.074 165.362 180.725 165.163ZM181.105 164.499C181.376 164.654 181.666 164.643 181.976 164.466C182.287 164.288 182.592 163.939 182.89 163.417C183.087 163.073 183.217 162.763 183.279 162.487C183.341 162.211 183.34 161.976 183.277 161.783C183.214 161.588 183.093 161.439 182.914 161.336C182.644 161.182 182.354 161.194 182.043 161.373C181.734 161.55 181.431 161.897 181.134 162.413C180.934 162.758 180.803 163.069 180.738 163.345C180.676 163.622 180.675 163.858 180.738 164.054C180.802 164.247 180.924 164.396 181.105 164.499ZM184.705 167.438C184.356 167.239 184.107 166.979 183.958 166.66C183.811 166.339 183.766 165.974 183.824 165.562C183.883 165.15 184.048 164.707 184.319 164.234C184.591 163.762 184.888 163.398 185.211 163.142C185.535 162.885 185.872 162.74 186.221 162.707C186.571 162.675 186.92 162.758 187.267 162.957C187.615 163.156 187.864 163.414 188.013 163.732C188.163 164.05 188.209 164.414 188.151 164.823C188.095 165.233 187.932 165.674 187.662 166.146C187.391 166.621 187.092 166.988 186.765 167.247C186.441 167.506 186.104 167.652 185.753 167.686C185.403 167.72 185.054 167.638 184.705 167.438ZM185.084 166.775C185.355 166.93 185.646 166.919 185.955 166.742C186.267 166.564 186.572 166.214 186.87 165.693C187.067 165.348 187.196 165.038 187.258 164.762C187.32 164.487 187.32 164.252 187.256 164.058C187.193 163.863 187.072 163.714 186.893 163.612C186.623 163.457 186.333 163.47 186.023 163.648C185.714 163.826 185.41 164.172 185.113 164.689C184.914 165.034 184.782 165.345 184.718 165.621C184.655 165.898 184.655 166.134 184.718 166.329C184.781 166.523 184.903 166.672 185.084 166.775Z" fill="#42D8B9"/>
<rect x="93.2414" y="134.883" width="154.642" height="22.5826" rx="4.41834" transform="rotate(29.7621 93.2414 134.883)" fill="white"/>
<rect x="93.2414" y="134.883" width="154.642" height="22.5826" rx="4.41834" transform="rotate(29.7621 93.2414 134.883)" stroke="#DFFFF9" stroke-width="0.981854"/>
<rect x="93.5151" y="135.888" width="153.169" height="21.1099" rx="3.68195" transform="rotate(29.7621 93.5151 135.888)" stroke="#7BF2DA" stroke-width="0.490927"/>
<rect x="95.5137" y="143.765" width="0.490927" height="9.81854" transform="rotate(29.7621 95.5137 143.765)" fill="black"/>
<path d="M99.7347 150.59L99.4231 151.135L93.866 147.958L94.1775 147.413L99.7347 150.59ZM99.0617 151.767L98.7502 152.312L93.193 149.134L93.5046 148.59L99.0617 151.767ZM100.418 148.277L97.2275 153.856L96.3285 153.342L95.87 148.037L95.8265 148.012L93.6534 151.812L92.6401 151.233L95.8303 145.654L96.7374 146.173L97.1862 151.476L97.2379 151.505L99.4125 147.702L100.418 148.277ZM103.804 150.214L100.614 155.793L99.6036 155.215L102.231 150.619L102.199 150.601L100.417 150.688L100.947 149.762L102.843 149.664L103.804 150.214ZM104.032 157.888C103.584 157.632 103.263 157.298 103.072 156.887C102.883 156.476 102.825 156.005 102.899 155.476C102.976 154.946 103.188 154.377 103.536 153.769C103.885 153.161 104.267 152.693 104.682 152.364C105.1 152.034 105.533 151.848 105.981 151.806C106.431 151.764 106.88 151.871 107.327 152.127C107.773 152.382 108.093 152.714 108.286 153.123C108.479 153.532 108.538 154 108.463 154.526C108.391 155.053 108.181 155.62 107.834 156.227C107.485 156.837 107.101 157.309 106.681 157.643C106.264 157.975 105.83 158.163 105.379 158.207C104.93 158.251 104.481 158.145 104.032 157.888ZM104.52 157.036C104.868 157.235 105.242 157.221 105.64 156.993C106.04 156.764 106.432 156.314 106.815 155.644C107.069 155.201 107.235 154.802 107.315 154.448C107.395 154.094 107.394 153.792 107.312 153.543C107.232 153.292 107.076 153.1 106.845 152.968C106.499 152.77 106.126 152.786 105.727 153.016C105.329 153.244 104.939 153.689 104.557 154.353C104.301 154.797 104.131 155.196 104.049 155.552C103.968 155.908 103.968 156.211 104.049 156.462C104.13 156.712 104.287 156.903 104.52 157.036ZM108.535 159.31L108.328 159.589C108.172 159.803 107.993 160.01 107.793 160.209C107.593 160.41 107.401 160.591 107.216 160.75C107.031 160.909 106.884 161.034 106.775 161.123L106.11 160.743C106.199 160.647 106.32 160.516 106.472 160.35C106.627 160.185 106.793 159.996 106.971 159.782C107.149 159.568 107.315 159.342 107.47 159.106L107.663 158.811L108.535 159.31ZM110.977 161.859C110.528 161.603 110.208 161.269 110.016 160.858C109.827 160.447 109.77 159.976 109.843 159.447C109.92 158.917 110.132 158.348 110.48 157.74C110.83 157.133 111.212 156.664 111.627 156.335C112.044 156.005 112.477 155.819 112.926 155.777C113.376 155.735 113.824 155.842 114.271 156.098C114.718 156.353 115.038 156.685 115.23 157.094C115.423 157.503 115.482 157.971 115.408 158.497C115.335 159.024 115.125 159.591 114.779 160.198C114.43 160.808 114.045 161.28 113.626 161.614C113.209 161.946 112.775 162.134 112.324 162.178C111.874 162.222 111.425 162.116 110.977 161.859ZM111.464 161.007C111.813 161.206 112.186 161.192 112.584 160.964C112.985 160.735 113.377 160.285 113.76 159.615C114.013 159.172 114.18 158.773 114.26 158.419C114.339 158.065 114.338 157.763 114.257 157.514C114.176 157.263 114.02 157.071 113.79 156.939C113.443 156.741 113.07 156.757 112.671 156.987C112.273 157.215 111.883 157.66 111.502 158.324C111.245 158.768 111.076 159.167 110.993 159.523C110.912 159.879 110.912 160.182 110.993 160.433C111.075 160.683 111.232 160.874 111.464 161.007ZM116.093 164.785C115.645 164.528 115.324 164.195 115.133 163.784C114.944 163.372 114.886 162.902 114.96 162.373C115.036 161.843 115.249 161.274 115.597 160.666C115.946 160.058 116.328 159.59 116.743 159.261C117.161 158.931 117.594 158.745 118.042 158.702C118.492 158.661 118.941 158.768 119.388 159.023C119.834 159.279 120.154 159.611 120.347 160.02C120.539 160.429 120.599 160.897 120.524 161.423C120.452 161.95 120.242 162.517 119.895 163.124C119.546 163.734 119.162 164.206 118.742 164.539C118.325 164.872 117.891 165.06 117.44 165.103C116.991 165.148 116.542 165.041 116.093 164.785ZM116.581 163.932C116.929 164.132 117.303 164.117 117.7 163.889C118.101 163.661 118.493 163.211 118.876 162.541C119.13 162.098 119.296 161.699 119.376 161.345C119.456 160.99 119.455 160.689 119.373 160.439C119.293 160.189 119.137 159.997 118.906 159.865C118.559 159.667 118.187 159.683 117.788 159.912C117.39 160.14 117 160.586 116.618 161.25C116.362 161.694 116.192 162.093 116.11 162.448C116.029 162.805 116.029 163.108 116.109 163.359C116.191 163.608 116.348 163.799 116.581 163.932ZM121.21 167.711C120.761 167.454 120.441 167.121 120.249 166.71C120.061 166.298 120.003 165.828 120.077 165.299C120.153 164.769 120.365 164.2 120.713 163.591C121.063 162.984 121.445 162.516 121.86 162.187C122.277 161.857 122.71 161.671 123.159 161.628C123.609 161.587 124.057 161.694 124.504 161.949C124.951 162.205 125.271 162.537 125.463 162.946C125.656 163.355 125.715 163.823 125.641 164.349C125.568 164.876 125.359 165.443 125.012 166.049C124.663 166.66 124.278 167.132 123.859 167.465C123.442 167.798 123.008 167.986 122.557 168.029C122.107 168.073 121.658 167.967 121.21 167.711ZM121.697 166.858C122.046 167.057 122.419 167.043 122.817 166.815C123.218 166.586 123.61 166.137 123.993 165.467C124.246 165.024 124.413 164.625 124.493 164.271C124.572 163.916 124.571 163.614 124.49 163.365C124.409 163.114 124.254 162.923 124.023 162.791C123.676 162.593 123.303 162.608 122.904 162.838C122.506 163.066 122.117 163.512 121.735 164.176C121.478 164.619 121.309 165.019 121.226 165.374C121.146 165.73 121.145 166.034 121.226 166.285C121.308 166.534 121.465 166.725 121.697 166.858Z" fill="#42D8B9"/>
<g clip-path="url(#clip1_4917_6820)">
<rect x="75.3906" y="167.09" width="167.897" height="21.6008" rx="3.92742" transform="rotate(29.7621 75.3906 167.09)" fill="#42D8B9"/>
<path d="M114.313 204.668L116.8 200.32L118.431 201.252C118.765 201.443 119.009 201.666 119.165 201.92C119.321 202.175 119.395 202.444 119.387 202.729C119.381 203.013 119.298 203.292 119.141 203.568C118.981 203.847 118.781 204.061 118.539 204.211C118.298 204.36 118.027 204.432 117.726 204.425C117.427 204.417 117.109 204.317 116.774 204.125L115.693 203.507L116.063 202.86L117.038 203.417C117.233 203.529 117.413 203.586 117.576 203.59C117.739 203.593 117.885 203.552 118.012 203.467C118.141 203.383 118.25 203.264 118.338 203.11C118.426 202.955 118.473 202.802 118.48 202.65C118.487 202.498 118.447 202.354 118.358 202.217C118.272 202.079 118.13 201.954 117.933 201.841L117.211 201.428L115.101 205.119L114.313 204.668ZM118.97 207.419C118.763 207.3 118.598 207.157 118.475 206.989C118.353 206.82 118.286 206.635 118.273 206.434C118.262 206.234 118.317 206.027 118.439 205.813C118.545 205.629 118.666 205.497 118.802 205.415C118.939 205.334 119.087 205.29 119.246 205.285C119.404 205.28 119.568 205.302 119.736 205.349C119.907 205.396 120.076 205.456 120.244 205.53C120.447 205.619 120.612 205.69 120.74 205.742C120.868 205.793 120.969 205.817 121.043 205.814C121.118 205.81 121.177 205.772 121.219 205.698L121.226 205.685C121.318 205.525 121.341 205.374 121.296 205.232C121.252 205.09 121.14 204.968 120.962 204.866C120.774 204.759 120.601 204.714 120.443 204.733C120.287 204.753 120.158 204.808 120.056 204.898L119.397 204.386C119.567 204.22 119.755 204.108 119.961 204.049C120.168 203.989 120.385 203.98 120.611 204.021C120.838 204.06 121.066 204.145 121.294 204.276C121.451 204.366 121.597 204.473 121.732 204.599C121.866 204.725 121.974 204.867 122.054 205.026C122.135 205.183 122.173 205.356 122.169 205.545C122.165 205.735 122.102 205.938 121.978 206.155L120.73 208.337L119.991 207.915L120.247 207.467L120.221 207.452C120.123 207.516 120.008 207.563 119.878 207.594C119.75 207.624 119.609 207.627 119.454 207.602C119.301 207.577 119.14 207.516 118.97 207.419ZM119.492 206.968C119.647 207.056 119.798 207.102 119.946 207.106C120.095 207.108 120.229 207.076 120.348 207.009C120.469 206.943 120.563 206.849 120.632 206.729L120.852 206.345C120.816 206.351 120.765 206.346 120.697 206.33C120.631 206.314 120.559 206.293 120.481 206.265C120.402 206.237 120.326 206.208 120.251 206.179C120.176 206.149 120.111 206.123 120.056 206.101C119.932 206.051 119.815 206.018 119.704 206.001C119.593 205.985 119.494 205.994 119.405 206.027C119.317 206.06 119.244 206.125 119.188 206.224C119.107 206.366 119.097 206.502 119.159 206.634C119.221 206.765 119.332 206.876 119.492 206.968ZM121.164 210.209C121.059 210.149 120.967 210.085 120.888 210.017C120.809 209.951 120.749 209.893 120.709 209.842L121.23 209.345C121.323 209.441 121.414 209.514 121.503 209.563C121.591 209.612 121.684 209.628 121.781 209.612C121.879 209.599 121.987 209.544 122.104 209.447L122.271 209.309L122.992 205.303L123.807 205.769L123.15 208.662L123.184 208.682L125.347 206.65L126.164 207.117L122.767 210.027C122.608 210.165 122.442 210.266 122.271 210.332C122.1 210.399 121.922 210.424 121.739 210.405C121.557 210.389 121.365 210.324 121.164 210.209ZM130.515 209.748C130.601 209.552 130.6 209.36 130.512 209.172C130.425 208.985 130.265 208.825 130.031 208.692C129.867 208.598 129.712 208.542 129.566 208.524C129.42 208.507 129.292 208.522 129.181 208.572C129.07 208.621 128.983 208.7 128.919 208.808C128.868 208.899 128.843 208.989 128.846 209.079C128.851 209.17 128.875 209.259 128.921 209.347C128.967 209.434 129.025 209.518 129.095 209.599C129.165 209.68 129.239 209.757 129.316 209.829L129.665 210.164C129.808 210.297 129.936 210.438 130.05 210.59C130.166 210.743 130.255 210.903 130.319 211.071C130.384 211.24 130.412 211.414 130.403 211.595C130.393 211.775 130.335 211.96 130.227 212.148C130.081 212.403 129.888 212.59 129.647 212.71C129.407 212.828 129.132 212.871 128.823 212.839C128.517 212.806 128.19 212.691 127.841 212.492C127.503 212.298 127.239 212.078 127.05 211.831C126.862 211.584 126.756 211.32 126.731 211.039C126.707 210.759 126.772 210.471 126.926 210.176L127.701 210.619C127.625 210.777 127.6 210.93 127.625 211.077C127.649 211.224 127.713 211.361 127.817 211.485C127.921 211.611 128.056 211.721 128.22 211.815C128.391 211.913 128.556 211.973 128.714 211.996C128.874 212.018 129.017 212.004 129.143 211.954C129.271 211.903 129.37 211.815 129.443 211.691C129.506 211.577 129.527 211.465 129.503 211.354C129.481 211.242 129.426 211.127 129.336 211.011C129.249 210.893 129.139 210.77 129.006 210.641L128.585 210.231C128.279 209.934 128.076 209.633 127.974 209.327C127.875 209.021 127.915 208.712 128.093 208.4C128.24 208.144 128.437 207.959 128.686 207.846C128.936 207.734 129.212 207.693 129.513 207.725C129.816 207.755 130.119 207.857 130.423 208.031C130.732 208.207 130.971 208.416 131.142 208.656C131.315 208.896 131.414 209.149 131.438 209.414C131.464 209.679 131.408 209.935 131.273 210.182L130.515 209.748ZM131.605 214.641C131.278 214.454 131.034 214.224 130.874 213.952C130.716 213.68 130.645 213.382 130.661 213.059C130.678 212.734 130.784 212.401 130.979 212.06C131.171 211.724 131.403 211.466 131.675 211.285C131.95 211.104 132.243 211.009 132.554 210.999C132.867 210.988 133.179 211.072 133.49 211.25C133.691 211.365 133.862 211.506 134.003 211.673C134.147 211.84 134.249 212.029 134.309 212.242C134.371 212.456 134.382 212.69 134.342 212.943C134.303 213.195 134.202 213.464 134.039 213.75L133.904 213.986L131.23 212.457L131.527 211.939L133.463 213.046C133.546 212.898 133.589 212.749 133.592 212.599C133.596 212.447 133.562 212.306 133.488 212.176C133.415 212.046 133.306 211.939 133.158 211.855C133.001 211.765 132.841 211.724 132.679 211.733C132.517 211.74 132.368 211.786 132.231 211.871C132.096 211.955 131.986 212.07 131.901 212.215L131.643 212.667C131.534 212.857 131.476 213.04 131.467 213.215C131.46 213.389 131.498 213.548 131.581 213.692C131.665 213.834 131.791 213.952 131.958 214.048C132.07 214.112 132.18 214.154 132.288 214.175C132.397 214.194 132.503 214.192 132.605 214.167C132.707 214.143 132.802 214.095 132.888 214.022L133.56 214.513C133.406 214.677 133.225 214.793 133.017 214.862C132.811 214.93 132.587 214.947 132.346 214.912C132.105 214.876 131.858 214.786 131.605 214.641ZM136.997 211.869L134.51 216.218L133.742 215.778L136.229 211.429L136.997 211.869ZM138.556 212.761L136.07 217.109L135.301 216.67L137.788 212.321L138.556 212.761ZM138.268 218.451C137.941 218.264 137.697 218.034 137.537 217.762C137.379 217.49 137.308 217.192 137.324 216.868C137.341 216.544 137.446 216.211 137.641 215.869C137.833 215.534 138.065 215.276 138.338 215.095C138.612 214.914 138.905 214.819 139.217 214.809C139.53 214.798 139.842 214.882 140.153 215.06C140.354 215.175 140.525 215.316 140.666 215.483C140.81 215.649 140.911 215.839 140.972 216.052C141.034 216.266 141.045 216.5 141.005 216.753C140.966 217.005 140.865 217.274 140.701 217.56L140.567 217.796L137.893 216.267L138.189 215.749L140.126 216.856C140.209 216.708 140.252 216.559 140.255 216.409C140.259 216.257 140.224 216.116 140.151 215.986C140.078 215.856 139.968 215.749 139.821 215.665C139.664 215.575 139.504 215.534 139.342 215.543C139.18 215.55 139.03 215.596 138.893 215.681C138.759 215.765 138.649 215.88 138.564 216.025L138.305 216.477C138.197 216.667 138.139 216.85 138.13 217.025C138.123 217.199 138.161 217.358 138.244 217.502C138.328 217.644 138.454 217.762 138.621 217.858C138.732 217.922 138.843 217.964 138.951 217.985C139.06 218.004 139.166 218.002 139.268 217.977C139.37 217.953 139.464 217.905 139.551 217.832L140.223 218.323C140.069 218.487 139.888 218.603 139.679 218.672C139.473 218.74 139.25 218.757 139.008 218.722C138.768 218.686 138.521 218.596 138.268 218.451ZM140.405 219.588L142.27 216.327L143.015 216.753L142.704 217.296L142.738 217.316C142.905 217.161 143.09 217.075 143.293 217.055C143.498 217.035 143.693 217.079 143.88 217.186C143.923 217.21 143.969 217.239 144.019 217.273C144.071 217.307 144.113 217.337 144.144 217.365L143.74 218.072C143.714 218.042 143.668 218.002 143.602 217.953C143.538 217.904 143.474 217.86 143.409 217.823C143.269 217.743 143.125 217.701 142.978 217.698C142.834 217.695 142.7 217.728 142.575 217.798C142.451 217.867 142.349 217.971 142.27 218.11L141.173 220.028L140.405 219.588ZM149.882 221.345L149.639 221.769L145.307 219.292L145.55 218.868L149.882 221.345ZM149.358 222.262L149.115 222.687L144.783 220.21L145.026 219.785L149.358 222.262ZM150.414 219.541L147.928 223.89L147.227 223.489L146.87 219.354L146.836 219.335L145.142 222.297L144.352 221.845L146.839 217.497L147.546 217.901L147.896 222.035L147.936 222.058L149.631 219.093L150.414 219.541ZM153.054 221.051L150.568 225.4L149.78 224.949L151.828 221.367L151.803 221.352L150.414 221.421L150.827 220.699L152.305 220.622L153.054 221.051ZM153.232 227.033C152.882 226.833 152.633 226.573 152.483 226.253C152.336 225.932 152.291 225.565 152.349 225.153C152.408 224.74 152.574 224.296 152.845 223.822C153.117 223.349 153.415 222.984 153.739 222.727C154.064 222.47 154.402 222.325 154.751 222.292C155.102 222.259 155.452 222.343 155.8 222.542C156.148 222.741 156.397 223 156.548 223.319C156.698 223.638 156.744 224.002 156.686 224.412C156.629 224.823 156.466 225.265 156.196 225.738C155.924 226.214 155.624 226.582 155.297 226.842C154.972 227.101 154.634 227.248 154.282 227.281C153.932 227.316 153.582 227.233 153.232 227.033ZM153.612 226.368C153.884 226.524 154.175 226.513 154.485 226.335C154.797 226.157 155.103 225.806 155.401 225.284C155.599 224.939 155.729 224.628 155.791 224.351C155.853 224.075 155.852 223.84 155.789 223.646C155.726 223.45 155.605 223.301 155.425 223.198C155.154 223.044 154.864 223.056 154.553 223.235C154.243 223.413 153.939 223.76 153.641 224.277C153.441 224.623 153.309 224.935 153.245 225.212C153.182 225.489 153.182 225.726 153.245 225.922C153.308 226.116 153.431 226.265 153.612 226.368ZM156.742 228.141L156.581 228.359C156.459 228.526 156.32 228.687 156.164 228.842C156.008 228.999 155.858 229.14 155.714 229.264C155.57 229.388 155.455 229.485 155.37 229.555L154.852 229.258C154.921 229.183 155.015 229.081 155.134 228.952C155.254 228.824 155.384 228.676 155.523 228.509C155.661 228.342 155.791 228.167 155.911 227.982L156.062 227.753L156.742 228.141ZM158.645 230.128C158.295 229.928 158.046 229.668 157.896 229.348C157.749 229.027 157.704 228.661 157.762 228.248C157.821 227.835 157.987 227.392 158.258 226.917C158.531 226.444 158.828 226.079 159.152 225.822C159.477 225.565 159.815 225.42 160.164 225.387C160.515 225.355 160.865 225.438 161.213 225.637C161.561 225.837 161.811 226.095 161.961 226.414C162.111 226.733 162.157 227.098 162.099 227.508C162.042 227.919 161.879 228.361 161.609 228.833C161.337 229.309 161.037 229.677 160.71 229.937C160.385 230.196 160.047 230.343 159.695 230.377C159.345 230.411 158.995 230.328 158.645 230.128ZM159.025 229.464C159.297 229.619 159.588 229.608 159.898 229.43C160.21 229.252 160.516 228.902 160.814 228.379C161.012 228.034 161.142 227.723 161.204 227.447C161.266 227.171 161.265 226.935 161.202 226.741C161.139 226.546 161.018 226.396 160.838 226.294C160.567 226.139 160.277 226.151 159.966 226.33C159.656 226.508 159.352 226.855 159.054 227.373C158.854 227.719 158.722 228.03 158.658 228.307C158.595 228.585 158.595 228.821 158.658 229.017C158.721 229.211 158.844 229.36 159.025 229.464ZM162.633 232.409C162.284 232.209 162.034 231.949 161.885 231.629C161.738 231.308 161.693 230.941 161.75 230.529C161.81 230.116 161.975 229.672 162.246 229.198C162.519 228.725 162.817 228.36 163.14 228.103C163.466 227.846 163.803 227.701 164.153 227.668C164.504 227.635 164.853 227.719 165.201 227.918C165.55 228.117 165.799 228.376 165.949 228.695C166.099 229.014 166.145 229.378 166.087 229.788C166.031 230.199 165.867 230.641 165.597 231.114C165.325 231.59 165.025 231.958 164.698 232.218C164.373 232.477 164.035 232.624 163.683 232.657C163.333 232.692 162.983 232.609 162.633 232.409ZM163.013 231.744C163.285 231.9 163.576 231.889 163.886 231.711C164.199 231.533 164.504 231.182 164.803 230.66C165 230.315 165.13 230.004 165.192 229.727C165.254 229.451 165.254 229.216 165.19 229.022C165.127 228.826 165.006 228.677 164.826 228.574C164.556 228.42 164.265 228.432 163.954 228.611C163.644 228.789 163.34 229.136 163.042 229.653C162.843 229.999 162.711 230.311 162.646 230.588C162.583 230.865 162.583 231.102 162.646 231.298C162.71 231.492 162.832 231.641 163.013 231.744ZM166.622 234.69C166.272 234.49 166.022 234.23 165.873 233.909C165.726 233.589 165.681 233.222 165.738 232.81C165.798 232.397 165.963 231.953 166.234 231.479C166.507 231.005 166.805 230.64 167.128 230.384C167.454 230.126 167.791 229.981 168.141 229.948C168.492 229.916 168.841 229.999 169.19 230.199C169.538 230.398 169.787 230.657 169.937 230.976C170.087 231.294 170.134 231.659 170.076 232.069C170.019 232.48 169.856 232.922 169.585 233.395C169.313 233.87 169.014 234.238 168.687 234.498C168.362 234.758 168.023 234.904 167.672 234.938C167.321 234.972 166.971 234.89 166.622 234.69ZM167.002 234.025C167.273 234.18 167.564 234.169 167.874 233.992C168.187 233.813 168.492 233.463 168.791 232.941C168.989 232.595 169.118 232.284 169.181 232.008C169.243 231.732 169.242 231.497 169.178 231.302C169.116 231.107 168.994 230.958 168.814 230.855C168.544 230.7 168.253 230.712 167.942 230.891C167.632 231.069 167.328 231.417 167.031 231.934C166.831 232.28 166.699 232.591 166.635 232.868C166.572 233.146 166.571 233.383 166.634 233.578C166.698 233.772 166.82 233.921 167.002 234.025Z" fill="#1E293B"/>
</g>
</g>
</g>
<defs>
<filter id="filter0_d_4917_6820" x="-0.860352" y="0.224487" width="342.86" height="358.076" filterUnits="userSpaceOnUse" color-interpolation-filters="sRGB">
<feFlood flood-opacity="0" result="BackgroundImageFix"/>
<feColorMatrix in="SourceAlpha" type="matrix" values="0 0 0 0 0 0 0 0 0 0 0 0 0 0 0 0 0 0 127 0" result="hardAlpha"/>
<feMorphology radius="15" operator="dilate" in="SourceAlpha" result="effect1_dropShadow_4917_6820"/>
<feOffset dy="10"/>
<feGaussianBlur stdDeviation="10"/>
<feColorMatrix type="matrix" values="0 0 0 0 0.458333 0 0 0 0 0.429688 0 0 0 0 0.429688 0 0 0 0.06 0"/>
<feBlend mode="normal" in2="BackgroundImageFix" result="effect1_dropShadow_4917_6820"/>
<feBlend mode="normal" in="SourceGraphic" in2="effect1_dropShadow_4917_6820" result="shape"/>
</filter>
<filter id="filter1_d_4917_6820" x="74.9063" y="-25.2818" width="139.44" height="139.441" filterUnits="userSpaceOnUse" color-interpolation-filters="sRGB">
<feFlood flood-opacity="0" result="BackgroundImageFix"/>
<feColorMatrix in="SourceAlpha" type="matrix" values="0 0 0 0 0 0 0 0 0 0 0 0 0 0 0 0 0 0 127 0" result="hardAlpha"/>
<feMorphology radius="5.89112" operator="erode" in="SourceAlpha" result="effect1_dropShadow_4917_6820"/>
<feOffset dy="12.2732"/>
<feGaussianBlur stdDeviation="12.2732"/>
<feColorMatrix type="matrix" values="0 0 0 0 0.458333 0 0 0 0 0.429688 0 0 0 0 0.429688 0 0 0 0.25 0"/>
<feBlend mode="normal" in2="BackgroundImageFix" result="effect1_dropShadow_4917_6820"/>
<feBlend mode="normal" in="SourceGraphic" in2="effect1_dropShadow_4917_6820" result="shape"/>
</filter>
<filter id="filter2_d_4917_6820" x="116.483" y="242.235" width="139.425" height="139.426" filterUnits="userSpaceOnUse" color-interpolation-filters="sRGB">
<feFlood flood-opacity="0" result="BackgroundImageFix"/>
<feColorMatrix in="SourceAlpha" type="matrix" values="0 0 0 0 0 0 0 0 0 0 0 0 0 0 0 0 0 0 127 0" result="hardAlpha"/>
<feMorphology radius="5.89112" operator="erode" in="SourceAlpha" result="effect1_dropShadow_4917_6820"/>
<feOffset dy="12.2732"/>
<feGaussianBlur stdDeviation="12.2732"/>
<feColorMatrix type="matrix" values="0 0 0 0 0.458333 0 0 0 0 0.429688 0 0 0 0 0.429688 0 0 0 0.25 0"/>
<feBlend mode="normal" in2="BackgroundImageFix" result="effect1_dropShadow_4917_6820"/>
<feBlend mode="normal" in="SourceGraphic" in2="effect1_dropShadow_4917_6820" result="shape"/>
</filter>
<clipPath id="clip0_4917_6820">
<rect x="146.334" y="25.2245" width="185.079" height="226.015" rx="4.67123" transform="rotate(29.7621 146.334 25.2245)" fill="white"/>
</clipPath>
<clipPath id="clip1_4917_6820">
<rect x="75.3906" y="167.09" width="167.897" height="21.6008" rx="3.92742" transform="rotate(29.7621 75.3906 167.09)" fill="white"/>
</clipPath>
</defs>
</svg>
