<svg width="376" height="347" viewBox="0 0 376 347" fill="none" xmlns="http://www.w3.org/2000/svg">
<path fill-rule="evenodd" clip-rule="evenodd" d="M196.094 58.631C221.543 68.0111 249.703 65.1931 272.626 79.6897C296.752 94.9464 313.095 117.861 328.128 142.127C347.993 174.193 383.138 206.21 373.619 242.709C364.158 278.985 319.959 293.836 285.017 307.42C256.664 318.443 226.076 306.578 196.094 311.724C156.26 318.562 118.141 360.047 81.8306 342.297C46.6982 325.124 53.8265 272.343 40.3972 235.617C26.2584 196.949 -2.91159 162.66 1.16519 121.692C5.71331 75.986 19.8793 16.7766 63.5806 2.63894C110.349 -12.491 149.972 41.6312 196.094 58.631Z" fill="#EFFFFC"/>
</svg>
