<svg width="18" height="18" viewBox="0 0 18 18" fill="none" xmlns="http://www.w3.org/2000/svg">
<path fill-rule="evenodd" clip-rule="evenodd" d="M0.432617 8.45223C0.432617 3.86706 4.31093 0.194336 9.03735 0.194336C13.7638 0.194336 17.6421 3.86706 17.6421 8.45223C17.6421 13.0374 13.7638 16.7101 9.03735 16.7101C8.48032 16.7109 7.92497 16.6593 7.37802 16.5566C7.18816 16.5209 7.06754 16.4984 6.97778 16.4862C6.91085 16.4758 6.84359 16.5008 6.81833 16.5146C6.72665 16.5581 6.60455 16.6229 6.41762 16.7223C5.27161 17.3318 3.93457 17.5479 2.645 17.308C2.43677 17.2692 2.26434 17.1236 2.19129 16.9249C2.11823 16.7261 2.15536 16.5035 2.28897 16.3391C2.66342 15.8786 2.92089 15.3237 3.03475 14.7265C3.06556 14.5622 2.99584 14.3392 2.78152 14.1215C1.32889 12.6464 0.432617 10.6516 0.432617 8.45223ZM5.83559 7.99862C5.39352 7.99862 5.03515 8.35698 5.03515 8.79906C5.03515 9.24115 5.39352 9.5995 5.83559 9.5995H5.84277C6.28484 9.5995 6.64321 9.24115 6.64321 8.79906C6.64321 8.35698 6.28484 7.99862 5.84277 7.99862H5.83559ZM9.03374 7.99862C8.59166 7.99862 8.2333 8.35698 8.2333 8.79906C8.2333 9.24115 8.59166 9.5995 9.03374 9.5995H9.04095C9.48303 9.5995 9.84139 9.24115 9.84139 8.79906C9.84139 8.35698 9.48303 7.99862 9.04095 7.99862H9.03374ZM11.4315 8.79906C11.4315 8.35698 11.7898 7.99862 12.2319 7.99862H12.2391C12.6812 7.99862 13.0395 8.35698 13.0395 8.79906C13.0395 9.24115 12.6812 9.5995 12.2391 9.5995H12.2319C11.7898 9.5995 11.4315 9.24115 11.4315 8.79906Z" fill="#CBD5E1"/>
</svg>
