<svg width="24" height="24" viewBox="0 0 24 24" fill="none" xmlns="http://www.w3.org/2000/svg">
<path fill-rule="evenodd" clip-rule="evenodd" d="M7.51886 4.14585C8.29054 4.08427 9.02312 3.78082 9.61233 3.2787C10.9873 2.10697 13.0096 2.10697 14.3845 3.2787C14.9738 3.78082 15.7063 4.08427 16.478 4.14585C18.2788 4.28955 19.7088 5.71953 19.8525 7.52032C19.9141 8.292 20.2175 9.02459 20.7196 9.61379C21.8914 10.9888 21.8914 13.011 20.7196 14.386C20.2175 14.9752 19.9141 15.7078 19.8525 16.4795C19.7088 18.2803 18.2788 19.7103 16.478 19.854C15.7063 19.9155 14.9738 20.219 14.3845 20.7211C13.0096 21.8928 10.9873 21.8928 9.61233 20.7211C9.02312 20.219 8.29054 19.9155 7.51886 19.854C5.71806 19.7103 4.28809 18.2803 4.14438 16.4795C4.0828 15.7078 3.77936 14.9752 3.27724 14.386C2.1055 13.011 2.1055 10.9888 3.27724 9.61379C3.77936 9.02459 4.0828 8.292 4.14439 7.52032C4.28809 5.71953 5.71806 4.28955 7.51886 4.14585ZM16.447 10.4484C16.9156 9.9798 16.9156 9.22 16.447 8.75137C15.9783 8.28275 15.2185 8.28275 14.7499 8.75137L10.7984 12.7028L9.24697 11.1514C8.77834 10.6827 8.01854 10.6827 7.54991 11.1514C7.08128 11.62 7.08128 12.3798 7.54991 12.8484L9.94991 15.2484C10.4185 15.7171 11.1783 15.7171 11.647 15.2484L16.447 10.4484Z" fill="#42D8B9"/>
</svg>
