<svg width="25" height="24" viewBox="0 0 25 24" fill="none" xmlns="http://www.w3.org/2000/svg">
<path fill-rule="evenodd" clip-rule="evenodd" d="M10.0238 1.99594C10.8597 1.52688 11.6339 1.25 12.5 1.25C13.366 1.25 14.1403 1.52688 14.9762 1.99594C15.7861 2.45043 16.7141 3.12145 17.8811 3.96523L19.3902 5.05633C20.3267 5.73347 21.0747 6.2743 21.6389 6.77487C22.2214 7.29173 22.6572 7.807 22.9337 8.45513C23.2107 9.10469 23.2777 9.77045 23.2406 10.5381C23.2047 11.2789 23.0674 12.1726 22.8961 13.2871L22.5808 15.3387C22.3374 16.9225 22.1436 18.1837 21.8589 19.1662C21.5645 20.1821 21.1498 20.9887 20.4086 21.6052C19.6704 22.2192 18.7911 22.4926 17.7169 22.6231C17.3513 22.6675 16.9522 22.6964 16.5166 22.7151L16.7479 18.554C16.919 16.0923 14.968 14 12.4992 14C10.0304 14 8.07945 16.0923 8.25054 18.554L8.48183 22.7151C8.04678 22.6963 7.64823 22.6675 7.28306 22.6231C6.2089 22.4926 5.32958 22.2192 4.5914 21.6052C3.85015 20.9887 3.43544 20.1821 3.14105 19.1662C2.85634 18.1836 2.66255 16.9225 2.41918 15.3387L2.10392 13.2872C1.93263 12.1727 1.79527 11.2789 1.75941 10.5381C1.72224 9.77045 1.78925 9.10469 2.06629 8.45513C2.34273 7.807 2.77855 7.29173 3.36109 6.77487C3.92528 6.27429 4.67329 5.73346 5.60983 5.05632L7.11888 3.96524C8.28586 3.12145 9.2139 2.45043 10.0238 1.99594ZM10.4868 22.7494C10.7517 22.75 11.0263 22.75 11.3111 22.75H13.6889C13.9731 22.75 14.2472 22.75 14.5116 22.7494L14.7518 18.4277L14.7524 18.4199C14.8458 17.1122 13.8101 16 12.4992 16C11.1882 16 10.1526 17.1122 10.246 18.4199L10.2466 18.4277L10.4868 22.7494Z" fill="#1DBE9D"/>
</svg>
