<svg width="20" height="20" viewBox="0 0 20 20" fill="none" xmlns="http://www.w3.org/2000/svg">
<path d="M14.9343 12.0693C15.0274 12.1247 15.1424 12.1896 15.2727 12.2631C15.8432 12.5849 16.7057 13.0715 17.2966 13.6499C17.666 14.0116 18.0172 14.4882 18.081 15.0722C18.1489 15.6932 17.878 16.276 17.3344 16.7938C16.3968 17.6871 15.2715 18.403 13.8161 18.403H6.7576C5.30216 18.403 4.17691 17.6871 3.23924 16.7938C2.69573 16.276 2.42481 15.6932 2.49269 15.0722C2.55652 14.4882 2.90764 14.0116 3.27718 13.6499C3.86803 13.0715 4.73051 12.5849 5.30108 12.2631C5.43127 12.1896 5.54629 12.1247 5.63939 12.0693C8.48419 10.3753 12.0895 10.3753 14.9343 12.0693Z" fill="#CBD5E1"/>
<path d="M6.08496 5.39665C6.08496 3.07577 7.9664 1.19434 10.2873 1.19434C12.6082 1.19434 14.4896 3.07577 14.4896 5.39665C14.4896 7.71751 12.6082 9.59896 10.2873 9.59896C7.9664 9.59896 6.08496 7.71751 6.08496 5.39665Z" fill="#CBD5E1"/>
</svg>
