<svg width="21" height="20" viewBox="0 0 21 20" fill="none" xmlns="http://www.w3.org/2000/svg">
<path fill-rule="evenodd" clip-rule="evenodd" d="M15.9065 4.30795C15.9748 4.56235 15.9995 4.84177 16.0084 5.17157C16.1252 5.18189 16.2376 5.1941 16.3456 5.20859C17.0714 5.30594 17.7124 5.51819 18.2257 6.03024C18.7389 6.54228 18.9516 7.18178 19.0491 7.90588C19.1422 8.59561 19.1421 9.46704 19.1421 10.5239V12.1948C19.1421 13.2516 19.1422 14.123 19.0491 14.8128C18.9516 15.5369 18.7389 16.1763 18.2257 16.6884C17.7124 17.2004 17.0714 17.4127 16.3456 17.51C15.6543 17.6028 14.7808 17.6027 13.7215 17.6027H8.91564C7.48924 17.6027 6.33951 17.6027 5.43526 17.4814C4.49645 17.3555 3.70599 17.0861 3.07819 16.4598C2.4504 15.8335 2.18037 15.0448 2.05415 14.1082C1.93258 13.2061 1.93259 12.059 1.93262 10.636V4.33549C1.93262 3.04243 2.98329 1.99421 4.27936 1.99421L12.2095 1.99418C12.8316 1.99384 13.2937 1.99359 13.694 2.10058C14.7738 2.38923 15.6171 3.23068 15.9065 4.30795ZM13.2886 3.60824C13.1148 3.56176 12.8794 3.55505 12.1015 3.55505H4.279C3.84698 3.55505 3.49676 3.90446 3.49676 4.33548C3.49676 4.76649 3.84698 5.1159 4.279 5.1159H13.7212C13.9713 5.11589 14.2111 5.11589 14.4405 5.1171C14.4334 4.91533 14.4199 4.80482 14.3949 4.71193C14.2503 4.17329 13.8285 3.75257 13.2886 3.60824ZM14.9398 9.79843C15.8239 9.79843 16.5406 10.5151 16.5406 11.3993C16.5406 12.2835 15.8239 13.0002 14.9398 13.0002C14.0556 13.0002 13.3389 12.2835 13.3389 11.3993C13.3389 10.5151 14.0556 9.79843 14.9398 9.79843Z" fill="#CBD5E1"/>
</svg>
